<svg width="557" height="122" viewBox="0 0 557 122" fill="none" xmlns="http://www.w3.org/2000/svg">
<mask id="path-1-outside-1_118_238" maskUnits="userSpaceOnUse" x="0" y="22" width="301" height="74" fill="black">
<rect fill="white" y="22" width="301" height="74"/>
<path d="M21.2614 93L2.17045 23.1818H10.7614L25.3523 80.0455H26.0341L40.8977 23.1818H50.4432L65.3068 80.0455H65.9886L80.5795 23.1818H89.1705L70.0795 93H61.3523L45.9432 37.3636H45.3977L29.9886 93H21.2614ZM109.148 94.2273C105.83 94.2273 102.818 93.6023 100.114 92.3523C97.4091 91.0795 95.2614 89.25 93.6705 86.8636C92.0795 84.4545 91.2841 81.5455 91.2841 78.1364C91.2841 75.1364 91.875 72.7045 93.0568 70.8409C94.2386 68.9545 95.8182 67.4773 97.7955 66.4091C99.7727 65.3409 101.955 64.5455 104.341 64.0227C106.75 63.4773 109.17 63.0455 111.602 62.7273C114.784 62.3182 117.364 62.0114 119.341 61.8068C121.341 61.5795 122.795 61.2045 123.705 60.6818C124.636 60.1591 125.102 59.25 125.102 57.9545V57.6818C125.102 54.3182 124.182 51.7045 122.341 49.8409C120.523 47.9773 117.761 47.0455 114.057 47.0455C110.216 47.0455 107.205 47.8864 105.023 49.5682C102.841 51.25 101.307 53.0455 100.42 54.9545L92.7841 52.2273C94.1477 49.0455 95.9659 46.5682 98.2386 44.7955C100.534 43 103.034 41.75 105.739 41.0455C108.466 40.3182 111.148 39.9545 113.784 39.9545C115.466 39.9545 117.398 40.1591 119.58 40.5682C121.784 40.9545 123.909 41.7614 125.955 42.9886C128.023 44.2159 129.739 46.0682 131.102 48.5455C132.466 51.0227 133.148 54.3409 133.148 58.5V93H125.102V85.9091H124.693C124.148 87.0455 123.239 88.2614 121.966 89.5568C120.693 90.8523 119 91.9545 116.886 92.8636C114.773 93.7727 112.193 94.2273 109.148 94.2273ZM110.375 87C113.557 87 116.239 86.375 118.42 85.125C120.625 83.875 122.284 82.2614 123.398 80.2841C124.534 78.3068 125.102 76.2273 125.102 74.0455V66.6818C124.761 67.0909 124.011 67.4659 122.852 67.8068C121.716 68.125 120.398 68.4091 118.898 68.6591C117.42 68.8864 115.977 69.0909 114.568 69.2727C113.182 69.4318 112.057 69.5682 111.193 69.6818C109.102 69.9545 107.148 70.3977 105.33 71.0114C103.534 71.6023 102.08 72.5 100.966 73.7045C99.875 74.8864 99.3295 76.5 99.3295 78.5455C99.3295 81.3409 100.364 83.4545 102.432 84.8864C104.523 86.2955 107.17 87 110.375 87ZM155.878 61.5V93H147.832V40.6364H155.605V48.8182H156.287C157.514 46.1591 159.378 44.0227 161.878 42.4091C164.378 40.7727 167.605 39.9545 171.56 39.9545C175.105 39.9545 178.207 40.6818 180.866 42.1364C183.526 43.5682 185.594 45.75 187.071 48.6818C188.548 51.5909 189.287 55.2727 189.287 59.7273V93H181.241V60.2727C181.241 56.1591 180.173 52.9545 178.037 50.6591C175.901 48.3409 172.969 47.1818 169.241 47.1818C166.673 47.1818 164.378 47.7386 162.355 48.8523C160.355 49.9659 158.776 51.5909 157.616 53.7273C156.457 55.8636 155.878 58.4545 155.878 61.5ZM212.034 61.5V93H203.989V40.6364H211.761V48.8182H212.443C213.67 46.1591 215.534 44.0227 218.034 42.4091C220.534 40.7727 223.761 39.9545 227.716 39.9545C231.261 39.9545 234.364 40.6818 237.023 42.1364C239.682 43.5682 241.75 45.75 243.227 48.6818C244.705 51.5909 245.443 55.2727 245.443 59.7273V93H237.398V60.2727C237.398 56.1591 236.33 52.9545 234.193 50.6591C232.057 48.3409 229.125 47.1818 225.398 47.1818C222.83 47.1818 220.534 47.7386 218.511 48.8523C216.511 49.9659 214.932 51.5909 213.773 53.7273C212.614 55.8636 212.034 58.4545 212.034 61.5ZM275.554 94.2273C272.236 94.2273 269.224 93.6023 266.52 92.3523C263.815 91.0795 261.668 89.25 260.077 86.8636C258.486 84.4545 257.69 81.5455 257.69 78.1364C257.69 75.1364 258.281 72.7045 259.463 70.8409C260.645 68.9545 262.224 67.4773 264.202 66.4091C266.179 65.3409 268.361 64.5455 270.747 64.0227C273.156 63.4773 275.577 63.0455 278.009 62.7273C281.19 62.3182 283.77 62.0114 285.747 61.8068C287.747 61.5795 289.202 61.2045 290.111 60.6818C291.043 60.1591 291.509 59.25 291.509 57.9545V57.6818C291.509 54.3182 290.588 51.7045 288.747 49.8409C286.929 47.9773 284.168 47.0455 280.463 47.0455C276.622 47.0455 273.611 47.8864 271.429 49.5682C269.247 51.25 267.713 53.0455 266.827 54.9545L259.19 52.2273C260.554 49.0455 262.372 46.5682 264.645 44.7955C266.94 43 269.44 41.75 272.145 41.0455C274.872 40.3182 277.554 39.9545 280.19 39.9545C281.872 39.9545 283.804 40.1591 285.986 40.5682C288.19 40.9545 290.315 41.7614 292.361 42.9886C294.429 44.2159 296.145 46.0682 297.509 48.5455C298.872 51.0227 299.554 54.3409 299.554 58.5V93H291.509V85.9091H291.099C290.554 87.0455 289.645 88.2614 288.372 89.5568C287.099 90.8523 285.406 91.9545 283.293 92.8636C281.179 93.7727 278.599 94.2273 275.554 94.2273ZM276.781 87C279.963 87 282.645 86.375 284.827 85.125C287.031 83.875 288.69 82.2614 289.804 80.2841C290.94 78.3068 291.509 76.2273 291.509 74.0455V66.6818C291.168 67.0909 290.418 67.4659 289.259 67.8068C288.122 68.125 286.804 68.4091 285.304 68.6591C283.827 68.8864 282.384 69.0909 280.974 69.2727C279.588 69.4318 278.463 69.5682 277.599 69.6818C275.509 69.9545 273.554 70.3977 271.736 71.0114C269.94 71.6023 268.486 72.5 267.372 73.7045C266.281 74.8864 265.736 76.5 265.736 78.5455C265.736 81.3409 266.77 83.4545 268.838 84.8864C270.929 86.2955 273.577 87 276.781 87Z"/>
</mask>
<path d="M21.2614 93L2.17045 23.1818H10.7614L25.3523 80.0455H26.0341L40.8977 23.1818H50.4432L65.3068 80.0455H65.9886L80.5795 23.1818H89.1705L70.0795 93H61.3523L45.9432 37.3636H45.3977L29.9886 93H21.2614ZM109.148 94.2273C105.83 94.2273 102.818 93.6023 100.114 92.3523C97.4091 91.0795 95.2614 89.25 93.6705 86.8636C92.0795 84.4545 91.2841 81.5455 91.2841 78.1364C91.2841 75.1364 91.875 72.7045 93.0568 70.8409C94.2386 68.9545 95.8182 67.4773 97.7955 66.4091C99.7727 65.3409 101.955 64.5455 104.341 64.0227C106.75 63.4773 109.17 63.0455 111.602 62.7273C114.784 62.3182 117.364 62.0114 119.341 61.8068C121.341 61.5795 122.795 61.2045 123.705 60.6818C124.636 60.1591 125.102 59.25 125.102 57.9545V57.6818C125.102 54.3182 124.182 51.7045 122.341 49.8409C120.523 47.9773 117.761 47.0455 114.057 47.0455C110.216 47.0455 107.205 47.8864 105.023 49.5682C102.841 51.25 101.307 53.0455 100.42 54.9545L92.7841 52.2273C94.1477 49.0455 95.9659 46.5682 98.2386 44.7955C100.534 43 103.034 41.75 105.739 41.0455C108.466 40.3182 111.148 39.9545 113.784 39.9545C115.466 39.9545 117.398 40.1591 119.58 40.5682C121.784 40.9545 123.909 41.7614 125.955 42.9886C128.023 44.2159 129.739 46.0682 131.102 48.5455C132.466 51.0227 133.148 54.3409 133.148 58.5V93H125.102V85.9091H124.693C124.148 87.0455 123.239 88.2614 121.966 89.5568C120.693 90.8523 119 91.9545 116.886 92.8636C114.773 93.7727 112.193 94.2273 109.148 94.2273ZM110.375 87C113.557 87 116.239 86.375 118.42 85.125C120.625 83.875 122.284 82.2614 123.398 80.2841C124.534 78.3068 125.102 76.2273 125.102 74.0455V66.6818C124.761 67.0909 124.011 67.4659 122.852 67.8068C121.716 68.125 120.398 68.4091 118.898 68.6591C117.42 68.8864 115.977 69.0909 114.568 69.2727C113.182 69.4318 112.057 69.5682 111.193 69.6818C109.102 69.9545 107.148 70.3977 105.33 71.0114C103.534 71.6023 102.08 72.5 100.966 73.7045C99.875 74.8864 99.3295 76.5 99.3295 78.5455C99.3295 81.3409 100.364 83.4545 102.432 84.8864C104.523 86.2955 107.17 87 110.375 87ZM155.878 61.5V93H147.832V40.6364H155.605V48.8182H156.287C157.514 46.1591 159.378 44.0227 161.878 42.4091C164.378 40.7727 167.605 39.9545 171.56 39.9545C175.105 39.9545 178.207 40.6818 180.866 42.1364C183.526 43.5682 185.594 45.75 187.071 48.6818C188.548 51.5909 189.287 55.2727 189.287 59.7273V93H181.241V60.2727C181.241 56.1591 180.173 52.9545 178.037 50.6591C175.901 48.3409 172.969 47.1818 169.241 47.1818C166.673 47.1818 164.378 47.7386 162.355 48.8523C160.355 49.9659 158.776 51.5909 157.616 53.7273C156.457 55.8636 155.878 58.4545 155.878 61.5ZM212.034 61.5V93H203.989V40.6364H211.761V48.8182H212.443C213.67 46.1591 215.534 44.0227 218.034 42.4091C220.534 40.7727 223.761 39.9545 227.716 39.9545C231.261 39.9545 234.364 40.6818 237.023 42.1364C239.682 43.5682 241.75 45.75 243.227 48.6818C244.705 51.5909 245.443 55.2727 245.443 59.7273V93H237.398V60.2727C237.398 56.1591 236.33 52.9545 234.193 50.6591C232.057 48.3409 229.125 47.1818 225.398 47.1818C222.83 47.1818 220.534 47.7386 218.511 48.8523C216.511 49.9659 214.932 51.5909 213.773 53.7273C212.614 55.8636 212.034 58.4545 212.034 61.5ZM275.554 94.2273C272.236 94.2273 269.224 93.6023 266.52 92.3523C263.815 91.0795 261.668 89.25 260.077 86.8636C258.486 84.4545 257.69 81.5455 257.69 78.1364C257.69 75.1364 258.281 72.7045 259.463 70.8409C260.645 68.9545 262.224 67.4773 264.202 66.4091C266.179 65.3409 268.361 64.5455 270.747 64.0227C273.156 63.4773 275.577 63.0455 278.009 62.7273C281.19 62.3182 283.77 62.0114 285.747 61.8068C287.747 61.5795 289.202 61.2045 290.111 60.6818C291.043 60.1591 291.509 59.25 291.509 57.9545V57.6818C291.509 54.3182 290.588 51.7045 288.747 49.8409C286.929 47.9773 284.168 47.0455 280.463 47.0455C276.622 47.0455 273.611 47.8864 271.429 49.5682C269.247 51.25 267.713 53.0455 266.827 54.9545L259.19 52.2273C260.554 49.0455 262.372 46.5682 264.645 44.7955C266.94 43 269.44 41.75 272.145 41.0455C274.872 40.3182 277.554 39.9545 280.19 39.9545C281.872 39.9545 283.804 40.1591 285.986 40.5682C288.19 40.9545 290.315 41.7614 292.361 42.9886C294.429 44.2159 296.145 46.0682 297.509 48.5455C298.872 51.0227 299.554 54.3409 299.554 58.5V93H291.509V85.9091H291.099C290.554 87.0455 289.645 88.2614 288.372 89.5568C287.099 90.8523 285.406 91.9545 283.293 92.8636C281.179 93.7727 278.599 94.2273 275.554 94.2273ZM276.781 87C279.963 87 282.645 86.375 284.827 85.125C287.031 83.875 288.69 82.2614 289.804 80.2841C290.94 78.3068 291.509 76.2273 291.509 74.0455V66.6818C291.168 67.0909 290.418 67.4659 289.259 67.8068C288.122 68.125 286.804 68.4091 285.304 68.6591C283.827 68.8864 282.384 69.0909 280.974 69.2727C279.588 69.4318 278.463 69.5682 277.599 69.6818C275.509 69.9545 273.554 70.3977 271.736 71.0114C269.94 71.6023 268.486 72.5 267.372 73.7045C266.281 74.8864 265.736 76.5 265.736 78.5455C265.736 81.3409 266.77 83.4545 268.838 84.8864C270.929 86.2955 273.577 87 276.781 87Z" fill="#EBEBEB"/>
<path d="M21.2614 93L20.2968 93.2638L20.4981 94H21.2614V93ZM2.17045 23.1818V22.1818H0.860307L1.20586 23.4456L2.17045 23.1818ZM10.7614 23.1818L11.73 22.9333L11.5372 22.1818H10.7614V23.1818ZM25.3523 80.0455L24.3837 80.294L24.5765 81.0455H25.3523V80.0455ZM26.0341 80.0455V81.0455H26.8063L27.0016 80.2983L26.0341 80.0455ZM40.8977 23.1818V22.1818H40.1255L39.9302 22.9289L40.8977 23.1818ZM50.4432 23.1818L51.4107 22.9289L51.2154 22.1818H50.4432V23.1818ZM65.3068 80.0455L64.3393 80.2983L64.5346 81.0455H65.3068V80.0455ZM65.9886 80.0455V81.0455H66.7644L66.9573 80.294L65.9886 80.0455ZM80.5795 23.1818V22.1818H79.8037L79.6109 22.9333L80.5795 23.1818ZM89.1705 23.1818L90.135 23.4456L90.4806 22.1818H89.1705V23.1818ZM70.0795 93V94H70.8428L71.0441 93.2638L70.0795 93ZM61.3523 93L60.3886 93.2669L60.5916 94H61.3523V93ZM45.9432 37.3636L46.9069 37.0967L46.7039 36.3636H45.9432V37.3636ZM45.3977 37.3636V36.3636H44.637L44.434 37.0967L45.3977 37.3636ZM29.9886 93V94H30.7493L30.9524 93.2669L29.9886 93ZM21.2614 93L22.226 92.7362L3.13504 22.9181L2.17045 23.1818L1.20586 23.4456L20.2968 93.2638L21.2614 93ZM2.17045 23.1818V24.1818H10.7614V23.1818V22.1818H2.17045V23.1818ZM10.7614 23.1818L9.79274 23.4304L24.3837 80.294L25.3523 80.0455L26.3209 79.7969L11.73 22.9333L10.7614 23.1818ZM25.3523 80.0455V81.0455H26.0341V80.0455V79.0455H25.3523V80.0455ZM26.0341 80.0455L27.0016 80.2983L41.8652 23.4347L40.8977 23.1818L39.9302 22.9289L25.0666 79.7926L26.0341 80.0455ZM40.8977 23.1818V24.1818H50.4432V23.1818V22.1818H40.8977V23.1818ZM50.4432 23.1818L49.4757 23.4347L64.3393 80.2983L65.3068 80.0455L66.2743 79.7926L51.4107 22.9289L50.4432 23.1818ZM65.3068 80.0455V81.0455H65.9886V80.0455V79.0455H65.3068V80.0455ZM65.9886 80.0455L66.9573 80.294L81.5482 23.4304L80.5795 23.1818L79.6109 22.9333L65.02 79.7969L65.9886 80.0455ZM80.5795 23.1818V24.1818H89.1705V23.1818V22.1818H80.5795V23.1818ZM89.1705 23.1818L88.2059 22.9181L69.115 92.7362L70.0795 93L71.0441 93.2638L90.135 23.4456L89.1705 23.1818ZM70.0795 93V92H61.3523V93V94H70.0795V93ZM61.3523 93L62.316 92.7331L46.9069 37.0967L45.9432 37.3636L44.9795 37.6305L60.3886 93.2669L61.3523 93ZM45.9432 37.3636V36.3636H45.3977V37.3636V38.3636H45.9432V37.3636ZM45.3977 37.3636L44.434 37.0967L29.0249 92.7331L29.9886 93L30.9524 93.2669L46.3615 37.6305L45.3977 37.3636ZM29.9886 93V92H21.2614V93V94H29.9886V93ZM100.114 92.3523L99.6878 93.2571L99.6941 93.26L100.114 92.3523ZM93.6705 86.8636L92.836 87.4147L92.8384 87.4183L93.6705 86.8636ZM93.0568 70.8409L93.9013 71.3765L93.9042 71.3718L93.0568 70.8409ZM104.341 64.0227L104.555 64.9996L104.562 64.998L104.341 64.0227ZM111.602 62.7273L111.475 61.7354L111.473 61.7357L111.602 62.7273ZM119.341 61.8068L119.444 62.8016L119.454 62.8004L119.341 61.8068ZM123.705 60.6818L123.215 59.8096L123.206 59.8149L123.705 60.6818ZM122.341 49.8409L121.625 50.5392L121.629 50.5437L122.341 49.8409ZM105.023 49.5682L105.633 50.3602L105.633 50.3602L105.023 49.5682ZM100.42 54.9545L100.084 55.8963L100.943 56.2031L101.327 55.3757L100.42 54.9545ZM92.7841 52.2273L91.8649 51.8334L91.4459 52.8112L92.4478 53.169L92.7841 52.2273ZM98.2386 44.7955L98.8537 45.584L98.8547 45.5831L98.2386 44.7955ZM105.739 41.0455L105.991 42.0132L105.996 42.0117L105.739 41.0455ZM119.58 40.5682L119.395 41.5511L119.407 41.5532L119.58 40.5682ZM125.955 42.9886L125.44 43.8461L125.444 43.8486L125.955 42.9886ZM131.102 48.5455L130.226 49.0277L130.226 49.0277L131.102 48.5455ZM133.148 93V94H134.148V93H133.148ZM125.102 93H124.102V94H125.102V93ZM125.102 85.9091H126.102V84.9091H125.102V85.9091ZM124.693 85.9091V84.9091H124.064L123.792 85.4764L124.693 85.9091ZM121.966 89.5568L122.679 90.2576L122.679 90.2576L121.966 89.5568ZM116.886 92.8636L116.491 91.945L116.886 92.8636ZM118.42 85.125L117.927 84.2551L117.923 84.2573L118.42 85.125ZM123.398 80.2841L122.531 79.7858L122.526 79.7934L123.398 80.2841ZM125.102 66.6818H126.102V63.9198L124.334 66.0416L125.102 66.6818ZM122.852 67.8068L123.122 68.7699L123.134 68.7662L122.852 67.8068ZM118.898 68.6591L119.05 69.6475L119.062 69.6455L118.898 68.6591ZM114.568 69.2727L114.682 70.2663L114.696 70.2645L114.568 69.2727ZM111.193 69.6818L111.323 70.6734L111.324 70.6733L111.193 69.6818ZM105.33 71.0114L105.642 71.9613L105.649 71.9589L105.33 71.0114ZM100.966 73.7045L100.232 73.0257L100.231 73.0263L100.966 73.7045ZM102.432 84.8864L101.863 85.7086L101.873 85.7156L102.432 84.8864ZM109.148 94.2273V93.2273C105.958 93.2273 103.092 92.6272 100.533 91.4445L100.114 92.3523L99.6941 93.26C102.544 94.5774 105.701 95.2273 109.148 95.2273V94.2273ZM100.114 92.3523L100.539 91.4475C97.9924 90.2488 95.988 88.5372 94.5025 86.3089L93.6705 86.8636L92.8384 87.4183C94.5347 89.9628 96.8258 91.9102 99.6878 93.2571L100.114 92.3523ZM93.6705 86.8636L94.5049 86.3126C93.0403 84.0947 92.2841 81.3856 92.2841 78.1364H91.2841H90.2841C90.2841 81.7053 91.1188 84.8144 92.836 87.4147L93.6705 86.8636ZM91.2841 78.1364H92.2841C92.2841 75.26 92.8514 73.0321 93.9013 71.3764L93.0568 70.8409L92.2123 70.3054C90.8986 72.377 90.2841 75.0127 90.2841 78.1364H91.2841ZM93.0568 70.8409L93.9042 71.3718C94.9933 69.6334 96.4441 68.2757 98.2708 67.2889L97.7955 66.4091L97.3201 65.5293C95.1923 66.6788 93.4839 68.2756 92.2094 70.31L93.0568 70.8409ZM97.7955 66.4091L98.2708 67.2889C100.159 66.2688 102.252 65.504 104.555 64.9996L104.341 64.0227L104.127 63.0459C101.657 63.5869 99.3864 64.413 97.3201 65.5293L97.7955 66.4091ZM104.341 64.0227L104.562 64.998C106.941 64.4594 109.331 64.033 111.732 63.7188L111.602 62.7273L111.473 61.7357C109.01 62.0579 106.559 62.4952 104.12 63.0474L104.341 64.0227ZM111.602 62.7273L111.73 63.7191C114.908 63.3105 117.478 63.0049 119.444 62.8015L119.341 61.8068L119.238 60.8121C117.249 61.0179 114.66 61.3258 111.475 61.7354L111.602 62.7273ZM119.341 61.8068L119.454 62.8004C121.488 62.5693 123.111 62.1768 124.203 61.5487L123.705 60.6818L123.206 59.8149C122.48 60.2322 121.194 60.5898 119.228 60.8132L119.341 61.8068ZM123.705 60.6818L124.194 61.554C125.513 60.8139 126.102 59.5208 126.102 57.9545H125.102H124.102C124.102 58.9792 123.76 59.5043 123.215 59.8097L123.705 60.6818ZM125.102 57.9545H126.102V57.6818H125.102H124.102V57.9545H125.102ZM125.102 57.6818H126.102C126.102 54.1332 125.127 51.238 123.052 49.1382L122.341 49.8409L121.629 50.5437C123.237 52.1711 124.102 54.5032 124.102 57.6818H125.102ZM122.341 49.8409L123.057 49.1426C120.983 47.0167 117.915 46.0455 114.057 46.0455V47.0455V48.0455C117.607 48.0455 120.063 48.9378 121.625 50.5392L122.341 49.8409ZM114.057 47.0455V46.0455C110.08 46.0455 106.826 46.9153 104.412 48.7762L105.023 49.5682L105.633 50.3602C107.583 48.8574 110.351 48.0455 114.057 48.0455V47.0455ZM105.023 49.5682L104.412 48.7762C102.141 50.5268 100.485 52.4407 99.5134 54.5334L100.42 54.9545L101.327 55.3757C102.129 53.6502 103.541 51.9732 105.633 50.3602L105.023 49.5682ZM100.42 54.9545L100.757 54.0128L93.1204 51.2855L92.7841 52.2273L92.4478 53.169L100.084 55.8963L100.42 54.9545ZM92.7841 52.2273L93.7032 52.6212C95.0137 49.5634 96.7383 47.2339 98.8537 45.584L98.2386 44.7955L97.6236 44.007C95.1935 45.9024 93.2817 48.5275 91.8649 51.8334L92.7841 52.2273ZM98.2386 44.7955L98.8547 45.5831C101.047 43.8683 103.424 42.6817 105.991 42.0132L105.739 41.0455L105.487 40.0778C102.644 40.8183 100.021 42.1317 97.6225 44.0078L98.2386 44.7955ZM105.739 41.0455L105.996 42.0117C108.645 41.3053 111.241 40.9545 113.784 40.9545V39.9545V38.9545C111.055 38.9545 108.286 39.3311 105.481 40.0792L105.739 41.0455ZM113.784 39.9545V40.9545C115.388 40.9545 117.256 41.15 119.395 41.5511L119.58 40.5682L119.764 39.5853C117.539 39.1682 115.544 38.9545 113.784 38.9545V39.9545ZM119.58 40.5682L119.407 41.5532C121.483 41.917 123.493 42.6778 125.44 43.8461L125.955 42.9886L126.469 42.1311C124.325 40.845 122.085 39.9921 119.752 39.5832L119.58 40.5682ZM125.955 42.9886L125.444 43.8486C127.334 44.97 128.933 46.679 130.226 49.0277L131.102 48.5455L131.978 48.0632C130.544 45.4574 128.712 43.4619 126.465 42.1286L125.955 42.9886ZM131.102 48.5455L130.226 49.0277C131.479 51.3039 132.148 54.4358 132.148 58.5H133.148H134.148C134.148 54.246 133.453 50.7416 131.978 48.0632L131.102 48.5455ZM133.148 58.5H132.148V93H133.148H134.148V58.5H133.148ZM133.148 93V92H125.102V93V94H133.148V93ZM125.102 93H126.102V85.9091H125.102H124.102V93H125.102ZM125.102 85.9091V84.9091H124.693V85.9091V86.9091H125.102V85.9091ZM124.693 85.9091L123.792 85.4764C123.31 86.4804 122.479 87.6075 121.253 88.856L121.966 89.5568L122.679 90.2576C123.998 88.9153 124.986 87.6105 125.595 86.3418L124.693 85.9091ZM121.966 89.5568L121.253 88.856C120.092 90.0378 118.516 91.074 116.491 91.945L116.886 92.8636L117.281 93.7823C119.484 92.8351 121.295 91.6668 122.679 90.2576L121.966 89.5568ZM116.886 92.8636L116.491 91.945C114.536 92.7861 112.099 93.2273 109.148 93.2273V94.2273V95.2273C112.287 95.2273 115.01 94.7594 117.281 93.7823L116.886 92.8636ZM110.375 87V88C113.686 88 116.549 87.3495 118.918 85.9927L118.42 85.125L117.923 84.2573C115.928 85.4005 113.428 86 110.375 86V87ZM118.42 85.125L118.914 85.9949C121.257 84.666 123.056 82.9285 124.269 80.7748L123.398 80.2841L122.526 79.7934C121.512 81.5943 119.993 83.084 117.927 84.2551L118.42 85.125ZM123.398 80.2841L124.265 80.7824C125.484 78.6606 126.102 76.4102 126.102 74.0455H125.102H124.102C124.102 76.0443 123.584 77.953 122.531 79.7858L123.398 80.2841ZM125.102 74.0455H126.102V66.6818H125.102H124.102V74.0455H125.102ZM125.102 66.6818L124.334 66.0416C124.288 66.0968 124.152 66.2181 123.837 66.3755C123.532 66.5277 123.115 66.6871 122.57 66.8475L122.852 67.8068L123.134 68.7662C123.748 68.5856 124.286 68.3871 124.731 68.1643C125.167 67.9467 125.576 67.6759 125.87 67.322L125.102 66.6818ZM122.852 67.8068L122.583 66.8439C121.489 67.15 120.207 67.427 118.733 67.6727L118.898 68.6591L119.062 69.6455C120.588 69.3912 121.943 69.1 123.122 68.7698L122.852 67.8068ZM118.898 68.6591L118.746 67.6707C117.276 67.8968 115.841 68.1002 114.44 68.2809L114.568 69.2727L114.696 70.2645C116.114 70.0816 117.565 69.8759 119.05 69.6475L118.898 68.6591ZM114.568 69.2727L114.454 68.2792C113.065 68.4386 111.934 68.5757 111.063 68.6904L111.193 69.6818L111.324 70.6733C112.18 70.5607 113.298 70.425 114.682 70.2662L114.568 69.2727ZM111.193 69.6818L111.064 68.6902C108.914 68.9706 106.896 69.4274 105.01 70.0639L105.33 71.0114L105.649 71.9589C107.4 71.368 109.29 70.9385 111.323 70.6734L111.193 69.6818ZM105.33 71.0114L105.017 70.0615C103.085 70.6973 101.477 71.6786 100.232 73.0257L100.966 73.7045L101.7 74.3834C102.682 73.3214 103.983 72.5072 105.642 71.9612L105.33 71.0114ZM100.966 73.7045L100.231 73.0263C98.927 74.439 98.3295 76.3195 98.3295 78.5455H99.3295H100.33C100.33 76.6805 100.823 75.3337 101.701 74.3828L100.966 73.7045ZM99.3295 78.5455H98.3295C98.3295 81.6264 99.4914 84.0669 101.863 85.7086L102.432 84.8864L103.001 84.0642C101.236 82.8422 100.33 81.0554 100.33 78.5455H99.3295ZM102.432 84.8864L101.873 85.7156C104.169 87.2627 107.025 88 110.375 88V87V86C107.316 86 104.877 85.3282 102.991 84.0571L102.432 84.8864ZM155.878 93V94H156.878V93H155.878ZM147.832 93H146.832V94H147.832V93ZM147.832 40.6364V39.6364H146.832V40.6364H147.832ZM155.605 40.6364H156.605V39.6364H155.605V40.6364ZM155.605 48.8182H154.605V49.8182H155.605V48.8182ZM156.287 48.8182V49.8182H156.927L157.195 49.2372L156.287 48.8182ZM161.878 42.4091L162.42 43.2493L162.426 43.2458L161.878 42.4091ZM180.866 42.1364L180.387 43.0137L180.392 43.0168L180.866 42.1364ZM187.071 48.6818L186.178 49.1318L186.179 49.1346L187.071 48.6818ZM189.287 93V94H190.287V93H189.287ZM181.241 93H180.241V94H181.241V93ZM178.037 50.6591L177.302 51.3368L177.305 51.3404L178.037 50.6591ZM162.355 48.8523L161.873 47.9763L161.869 47.9786L162.355 48.8523ZM157.616 53.7273L156.738 53.2504L156.738 53.2504L157.616 53.7273ZM155.878 61.5H154.878V93H155.878H156.878V61.5H155.878ZM155.878 93V92H147.832V93V94H155.878V93ZM147.832 93H148.832V40.6364H147.832H146.832V93H147.832ZM147.832 40.6364V41.6364H155.605V40.6364V39.6364H147.832V40.6364ZM155.605 40.6364H154.605V48.8182H155.605H156.605V40.6364H155.605ZM155.605 48.8182V49.8182H156.287V48.8182V47.8182H155.605V48.8182ZM156.287 48.8182L157.195 49.2372C158.341 46.7533 160.077 44.7618 162.42 43.2493L161.878 42.4091L161.336 41.5689C158.679 43.2837 156.687 45.5649 155.379 48.3991L156.287 48.8182ZM161.878 42.4091L162.426 43.2458C164.718 41.7454 167.738 40.9545 171.56 40.9545V39.9545V38.9545C167.472 38.9545 164.038 39.8001 161.33 41.5724L161.878 42.4091ZM171.56 39.9545V40.9545C174.966 40.9545 177.898 41.6523 180.387 43.0137L180.866 42.1364L181.346 41.259C178.517 39.7113 175.244 38.9545 171.56 38.9545V39.9545ZM180.866 42.1364L180.392 43.0168C182.855 44.343 184.785 46.3663 186.178 49.1318L187.071 48.6818L187.964 48.2318C186.403 45.1337 184.196 42.7934 181.341 41.2559L180.866 42.1364ZM187.071 48.6818L186.179 49.1346C187.564 51.8617 188.287 55.3755 188.287 59.7273H189.287H190.287C190.287 55.1699 189.532 51.3201 187.963 48.229L187.071 48.6818ZM189.287 59.7273H188.287V93H189.287H190.287V59.7273H189.287ZM189.287 93V92H181.241V93V94H189.287V93ZM181.241 93H182.241V60.2727H181.241H180.241V93H181.241ZM181.241 60.2727H182.241C182.241 55.9873 181.126 52.5101 178.769 49.9778L178.037 50.6591L177.305 51.3404C179.221 53.3989 180.241 56.3309 180.241 60.2727H181.241ZM178.037 50.6591L178.772 49.9814C176.412 47.4202 173.193 46.1818 169.241 46.1818V47.1818V48.1818C172.745 48.1818 175.389 49.2616 177.302 51.3368L178.037 50.6591ZM169.241 47.1818V46.1818C166.524 46.1818 164.059 46.7725 161.873 47.9763L162.355 48.8523L162.837 49.7283C164.696 48.7048 166.823 48.1818 169.241 48.1818V47.1818ZM162.355 48.8523L161.869 47.9786C159.692 49.1904 157.981 50.958 156.738 53.2504L157.616 53.7273L158.495 54.2042C159.57 52.2238 161.018 50.7415 162.842 49.726L162.355 48.8523ZM157.616 53.7273L156.738 53.2504C155.481 55.5657 154.878 58.3294 154.878 61.5H155.878H156.878C156.878 58.5797 157.433 56.1616 158.495 54.2042L157.616 53.7273ZM212.034 93V94H213.034V93H212.034ZM203.989 93H202.989V94H203.989V93ZM203.989 40.6364V39.6364H202.989V40.6364H203.989ZM211.761 40.6364H212.761V39.6364H211.761V40.6364ZM211.761 48.8182H210.761V49.8182H211.761V48.8182ZM212.443 48.8182V49.8182H213.083L213.351 49.2372L212.443 48.8182ZM218.034 42.4091L218.576 43.2493L218.582 43.2458L218.034 42.4091ZM237.023 42.1364L236.543 43.0137L236.549 43.0168L237.023 42.1364ZM243.227 48.6818L242.334 49.1318L242.336 49.1346L243.227 48.6818ZM245.443 93V94H246.443V93H245.443ZM237.398 93H236.398V94H237.398V93ZM234.193 50.6591L233.458 51.3368L233.461 51.3404L234.193 50.6591ZM218.511 48.8523L218.029 47.9763L218.025 47.9786L218.511 48.8523ZM213.773 53.7273L212.894 53.2504L212.894 53.2504L213.773 53.7273ZM212.034 61.5H211.034V93H212.034H213.034V61.5H212.034ZM212.034 93V92H203.989V93V94H212.034V93ZM203.989 93H204.989V40.6364H203.989H202.989V93H203.989ZM203.989 40.6364V41.6364H211.761V40.6364V39.6364H203.989V40.6364ZM211.761 40.6364H210.761V48.8182H211.761H212.761V40.6364H211.761ZM211.761 48.8182V49.8182H212.443V48.8182V47.8182H211.761V48.8182ZM212.443 48.8182L213.351 49.2372C214.498 46.7533 216.233 44.7618 218.576 43.2493L218.034 42.4091L217.492 41.5689C214.835 43.2837 212.843 45.5649 211.535 48.3991L212.443 48.8182ZM218.034 42.4091L218.582 43.2458C220.874 41.7454 223.894 40.9545 227.716 40.9545V39.9545V38.9545C223.629 38.9545 220.194 39.8001 217.486 41.5724L218.034 42.4091ZM227.716 39.9545V40.9545C231.122 40.9545 234.054 41.6523 236.543 43.0137L237.023 42.1364L237.503 41.259C234.673 39.7113 231.4 38.9545 227.716 38.9545V39.9545ZM237.023 42.1364L236.549 43.0168C239.011 44.343 240.941 46.3663 242.334 49.1318L243.227 48.6818L244.12 48.2318C242.559 45.1337 240.352 42.7934 237.497 41.2559L237.023 42.1364ZM243.227 48.6818L242.336 49.1346C243.721 51.8617 244.443 55.3755 244.443 59.7273H245.443H246.443C246.443 55.1699 245.689 51.3201 244.119 48.229L243.227 48.6818ZM245.443 59.7273H244.443V93H245.443H246.443V59.7273H245.443ZM245.443 93V92H237.398V93V94H245.443V93ZM237.398 93H238.398V60.2727H237.398H236.398V93H237.398ZM237.398 60.2727H238.398C238.398 55.9873 237.282 52.5101 234.925 49.9778L234.193 50.6591L233.461 51.3404C235.377 53.3989 236.398 56.3309 236.398 60.2727H237.398ZM234.193 50.6591L234.929 49.9814C232.568 47.4202 229.349 46.1818 225.398 46.1818V47.1818V48.1818C228.901 48.1818 231.545 49.2616 233.458 51.3368L234.193 50.6591ZM225.398 47.1818V46.1818C222.68 46.1818 220.216 46.7725 218.029 47.9763L218.511 48.8523L218.994 49.7283C220.853 48.7048 222.979 48.1818 225.398 48.1818V47.1818ZM218.511 48.8523L218.025 47.9786C215.849 49.1904 214.138 50.958 212.894 53.2504L213.773 53.7273L214.652 54.2042C215.726 52.2238 217.174 50.7415 218.998 49.726L218.511 48.8523ZM213.773 53.7273L212.894 53.2504C211.638 55.5657 211.034 58.3294 211.034 61.5H212.034H213.034C213.034 58.5797 213.59 56.1616 214.652 54.2042L213.773 53.7273ZM266.52 92.3523L266.094 93.2571L266.1 93.26L266.52 92.3523ZM260.077 86.8636L259.242 87.4147L259.245 87.4183L260.077 86.8636ZM259.463 70.8409L260.308 71.3765L260.31 71.3718L259.463 70.8409ZM270.747 64.0227L270.961 64.9996L270.968 64.998L270.747 64.0227ZM278.009 62.7273L277.881 61.7354L277.879 61.7357L278.009 62.7273ZM285.747 61.8068L285.85 62.8016L285.86 62.8004L285.747 61.8068ZM290.111 60.6818L289.622 59.8096L289.612 59.8149L290.111 60.6818ZM288.747 49.8409L288.031 50.5392L288.036 50.5437L288.747 49.8409ZM271.429 49.5682L272.039 50.3602L272.039 50.3602L271.429 49.5682ZM266.827 54.9545L266.49 55.8963L267.35 56.2031L267.734 55.3757L266.827 54.9545ZM259.19 52.2273L258.271 51.8334L257.852 52.8112L258.854 53.169L259.19 52.2273ZM264.645 44.7955L265.26 45.584L265.261 45.5831L264.645 44.7955ZM272.145 41.0455L272.397 42.0132L272.403 42.0117L272.145 41.0455ZM285.986 40.5682L285.801 41.5511L285.813 41.5532L285.986 40.5682ZM292.361 42.9886L291.846 43.8461L291.85 43.8486L292.361 42.9886ZM297.509 48.5455L296.632 49.0277L296.632 49.0277L297.509 48.5455ZM299.554 93V94H300.554V93H299.554ZM291.509 93H290.509V94H291.509V93ZM291.509 85.9091H292.509V84.9091H291.509V85.9091ZM291.099 85.9091V84.9091H290.47L290.198 85.4764L291.099 85.9091ZM288.372 89.5568L289.085 90.2576L289.085 90.2576L288.372 89.5568ZM283.293 92.8636L282.898 91.945L283.293 92.8636ZM284.827 85.125L284.333 84.2551L284.33 84.2573L284.827 85.125ZM289.804 80.2841L288.937 79.7858L288.933 79.7934L289.804 80.2841ZM291.509 66.6818H292.509V63.9198L290.74 66.0416L291.509 66.6818ZM289.259 67.8068L289.528 68.7699L289.541 68.7662L289.259 67.8068ZM285.304 68.6591L285.456 69.6475L285.468 69.6455L285.304 68.6591ZM280.974 69.2727L281.088 70.2663L281.102 70.2645L280.974 69.2727ZM277.599 69.6818L277.729 70.6734L277.73 70.6733L277.599 69.6818ZM271.736 71.0114L272.048 71.9613L272.056 71.9589L271.736 71.0114ZM267.372 73.7045L266.638 73.0257L266.637 73.0263L267.372 73.7045ZM268.838 84.8864L268.269 85.7086L268.279 85.7156L268.838 84.8864ZM275.554 94.2273V93.2273C272.364 93.2273 269.498 92.6272 266.939 91.4445L266.52 92.3523L266.1 93.26C268.951 94.5774 272.107 95.2273 275.554 95.2273V94.2273ZM266.52 92.3523L266.946 91.4475C264.399 90.2488 262.394 88.5372 260.909 86.3089L260.077 86.8636L259.245 87.4183C260.941 89.9628 263.232 91.9102 266.094 93.2571L266.52 92.3523ZM260.077 86.8636L260.911 86.3126C259.447 84.0947 258.69 81.3856 258.69 78.1364H257.69H256.69C256.69 81.7053 257.525 84.8144 259.242 87.4147L260.077 86.8636ZM257.69 78.1364H258.69C258.69 75.26 259.258 73.0321 260.308 71.3764L259.463 70.8409L258.619 70.3054C257.305 72.377 256.69 75.0127 256.69 78.1364H257.69ZM259.463 70.8409L260.31 71.3718C261.4 69.6334 262.85 68.2757 264.677 67.2889L264.202 66.4091L263.726 65.5293C261.599 66.6788 259.89 68.2756 258.616 70.31L259.463 70.8409ZM264.202 66.4091L264.677 67.2889C266.565 66.2688 268.658 65.504 270.961 64.9996L270.747 64.0227L270.533 63.0459C268.063 63.5869 265.793 64.413 263.726 65.5293L264.202 66.4091ZM270.747 64.0227L270.968 64.998C273.347 64.4594 275.737 64.033 278.138 63.7188L278.009 62.7273L277.879 61.7357C275.416 62.0579 272.965 62.4952 270.526 63.0474L270.747 64.0227ZM278.009 62.7273L278.136 63.7191C281.314 63.3105 283.884 63.0049 285.85 62.8015L285.747 61.8068L285.644 60.8121C283.655 61.0179 281.067 61.3258 277.881 61.7354L278.009 62.7273ZM285.747 61.8068L285.86 62.8004C287.894 62.5693 289.517 62.1768 290.609 61.5487L290.111 60.6818L289.612 59.8149C288.887 60.2322 287.6 60.5898 285.634 60.8132L285.747 61.8068ZM290.111 60.6818L290.6 61.554C291.919 60.8139 292.509 59.5208 292.509 57.9545H291.509H290.509C290.509 58.9792 290.166 59.5043 289.622 59.8097L290.111 60.6818ZM291.509 57.9545H292.509V57.6818H291.509H290.509V57.9545H291.509ZM291.509 57.6818H292.509C292.509 54.1332 291.533 51.238 289.459 49.1382L288.747 49.8409L288.036 50.5437C289.643 52.1711 290.509 54.5032 290.509 57.6818H291.509ZM288.747 49.8409L289.463 49.1426C287.389 47.0167 284.322 46.0455 280.463 46.0455V47.0455V48.0455C284.014 48.0455 286.469 48.9378 288.031 50.5392L288.747 49.8409ZM280.463 47.0455V46.0455C276.487 46.0455 273.233 46.9153 270.818 48.7762L271.429 49.5682L272.039 50.3602C273.989 48.8574 276.758 48.0455 280.463 48.0455V47.0455ZM271.429 49.5682L270.818 48.7762C268.547 50.5268 266.891 52.4407 265.92 54.5334L266.827 54.9545L267.734 55.3757C268.535 53.6502 269.947 51.9732 272.039 50.3602L271.429 49.5682ZM266.827 54.9545L267.163 54.0128L259.527 51.2855L259.19 52.2273L258.854 53.169L266.49 55.8963L266.827 54.9545ZM259.19 52.2273L260.109 52.6212C261.42 49.5634 263.145 47.2339 265.26 45.584L264.645 44.7955L264.03 44.007C261.6 45.9024 259.688 48.5275 258.271 51.8334L259.19 52.2273ZM264.645 44.7955L265.261 45.5831C267.453 43.8683 269.83 42.6817 272.397 42.0132L272.145 41.0455L271.893 40.0778C269.05 40.8183 266.427 42.1317 264.029 44.0078L264.645 44.7955ZM272.145 41.0455L272.403 42.0117C275.052 41.3053 277.647 40.9545 280.19 40.9545V39.9545V38.9545C277.461 38.9545 274.693 39.3311 271.887 40.0792L272.145 41.0455ZM280.19 39.9545V40.9545C281.794 40.9545 283.662 41.15 285.802 41.5511L285.986 40.5682L286.17 39.5853C283.946 39.1682 281.95 38.9545 280.19 38.9545V39.9545ZM285.986 40.5682L285.813 41.5532C287.889 41.917 289.899 42.6778 291.846 43.8461L292.361 42.9886L292.875 42.1311C290.732 40.845 288.492 39.9921 286.158 39.5832L285.986 40.5682ZM292.361 42.9886L291.85 43.8486C293.74 44.97 295.34 46.679 296.632 49.0277L297.509 48.5455L298.385 48.0632C296.95 45.4574 295.118 43.4619 292.871 42.1286L292.361 42.9886ZM297.509 48.5455L296.632 49.0277C297.885 51.3039 298.554 54.4358 298.554 58.5H299.554H300.554C300.554 54.246 299.859 50.7416 298.385 48.0632L297.509 48.5455ZM299.554 58.5H298.554V93H299.554H300.554V58.5H299.554ZM299.554 93V92H291.509V93V94H299.554V93ZM291.509 93H292.509V85.9091H291.509H290.509V93H291.509ZM291.509 85.9091V84.9091H291.099V85.9091V86.9091H291.509V85.9091ZM291.099 85.9091L290.198 85.4764C289.716 86.4804 288.885 87.6075 287.659 88.856L288.372 89.5568L289.085 90.2576C290.404 88.9153 291.392 87.6105 292.001 86.3418L291.099 85.9091ZM288.372 89.5568L287.659 88.856C286.498 90.0378 284.923 91.074 282.898 91.945L283.293 92.8636L283.688 93.7823C285.89 92.8351 287.701 91.6668 289.085 90.2576L288.372 89.5568ZM283.293 92.8636L282.898 91.945C280.942 92.7861 278.505 93.2273 275.554 93.2273V94.2273V95.2273C278.694 95.2273 281.416 94.7594 283.688 93.7823L283.293 92.8636ZM276.781 87V88C280.092 88 282.956 87.3495 285.324 85.9927L284.827 85.125L284.33 84.2573C282.334 85.4005 279.834 86 276.781 86V87ZM284.827 85.125L285.32 85.9949C287.664 84.666 289.462 82.9285 290.675 80.7748L289.804 80.2841L288.933 79.7934C287.918 81.5943 286.399 83.084 284.333 84.2551L284.827 85.125ZM289.804 80.2841L290.671 80.7824C291.89 78.6606 292.509 76.4102 292.509 74.0455H291.509H290.509C290.509 76.0443 289.99 77.953 288.937 79.7858L289.804 80.2841ZM291.509 74.0455H292.509V66.6818H291.509H290.509V74.0455H291.509ZM291.509 66.6818L290.74 66.0416C290.694 66.0968 290.558 66.2181 290.243 66.3755C289.939 66.5277 289.522 66.6871 288.976 66.8475L289.259 67.8068L289.541 68.7662C290.155 68.5856 290.692 68.3871 291.138 68.1643C291.573 67.9467 291.982 67.6759 292.277 67.322L291.509 66.6818ZM289.259 67.8068L288.989 66.8439C287.895 67.15 286.614 67.427 285.14 67.6727L285.304 68.6591L285.468 69.6455C286.994 69.3912 288.349 69.1 289.528 68.7698L289.259 67.8068ZM285.304 68.6591L285.152 67.6707C283.682 67.8968 282.247 68.1002 280.846 68.2809L280.974 69.2727L281.102 70.2645C282.52 70.0816 283.971 69.8759 285.456 69.6475L285.304 68.6591ZM280.974 69.2727L280.86 68.2792C279.471 68.4386 278.34 68.5757 277.469 68.6904L277.599 69.6818L277.73 70.6733C278.586 70.5607 279.705 70.425 281.088 70.2662L280.974 69.2727ZM277.599 69.6818L277.47 68.6902C275.321 68.9706 273.302 69.4274 271.416 70.0639L271.736 71.0114L272.056 71.9589C273.806 71.368 275.696 70.9385 277.729 70.6734L277.599 69.6818ZM271.736 71.0114L271.423 70.0615C269.491 70.6973 267.883 71.6786 266.638 73.0257L267.372 73.7045L268.106 74.3834C269.088 73.3214 270.389 72.5072 272.048 71.9612L271.736 71.0114ZM267.372 73.7045L266.637 73.0263C265.333 74.439 264.736 76.3195 264.736 78.5455H265.736H266.736C266.736 76.6805 267.229 75.3337 268.107 74.3828L267.372 73.7045ZM265.736 78.5455H264.736C264.736 81.6264 265.898 84.0669 268.269 85.7086L268.838 84.8864L269.407 84.0642C267.642 82.8422 266.736 81.0554 266.736 78.5455H265.736ZM268.838 84.8864L268.279 85.7156C270.575 87.2627 273.431 88 276.781 88V87V86C273.722 86 271.283 85.3282 269.397 84.0571L268.838 84.8864Z" fill="#C9C9C9" mask="url(#path-1-outside-1_118_238)"/>
<mask id="path-3-outside-2_118_238" maskUnits="userSpaceOnUse" x="311" y="27.0005" width="244" height="75" fill="black">
<rect fill="white" x="311" y="27.0005" width="244" height="75"/>
<path d="M374.936 53.6255H360.004C359.732 51.6937 359.175 49.9778 358.334 48.4778C357.493 46.955 356.413 45.6596 355.095 44.5914C353.777 43.5232 352.254 42.705 350.527 42.1369C348.822 41.5687 346.97 41.2846 344.97 41.2846C341.357 41.2846 338.209 42.1823 335.527 43.9778C332.845 45.7505 330.766 48.3414 329.288 51.7505C327.811 55.1369 327.072 59.2505 327.072 64.0914C327.072 69.0687 327.811 73.2505 329.288 76.6369C330.788 80.0232 332.879 82.58 335.561 84.3073C338.243 86.0346 341.345 86.8982 344.868 86.8982C346.845 86.8982 348.675 86.6369 350.357 86.1141C352.061 85.5914 353.572 84.83 354.891 83.83C356.209 82.8073 357.3 81.5687 358.163 80.1141C359.05 78.6596 359.663 77.0005 360.004 75.1369L374.936 75.205C374.55 78.4096 373.584 81.5005 372.038 84.4778C370.516 87.4323 368.459 90.08 365.868 92.4209C363.3 94.7391 360.232 96.58 356.663 97.9437C353.118 99.2846 349.107 99.955 344.629 99.955C338.402 99.955 332.834 98.5459 327.925 95.7278C323.038 92.9096 319.175 88.83 316.334 83.4891C313.516 78.1482 312.107 71.6823 312.107 64.0914C312.107 56.4778 313.538 50.0005 316.402 44.6596C319.266 39.3187 323.152 35.2505 328.061 32.455C332.97 29.6369 338.493 28.2278 344.629 28.2278C348.675 28.2278 352.425 28.7959 355.879 29.9323C359.357 31.0687 362.436 32.7278 365.118 34.9096C367.8 37.0687 369.982 39.7164 371.663 42.8528C373.368 45.9891 374.459 49.58 374.936 53.6255ZM408.908 100.023C403.612 100.023 399.033 98.8982 395.169 96.6482C391.328 94.3755 388.362 91.2164 386.271 87.1709C384.18 83.1028 383.135 78.3869 383.135 73.0232C383.135 67.6141 384.18 62.8869 386.271 58.8414C388.362 54.7732 391.328 51.6141 395.169 49.3641C399.033 47.0914 403.612 45.955 408.908 45.955C414.203 45.955 418.771 47.0914 422.612 49.3641C426.476 51.6141 429.453 54.7732 431.544 58.8414C433.635 62.8869 434.68 67.6141 434.68 73.0232C434.68 78.3869 433.635 83.1028 431.544 87.1709C429.453 91.2164 426.476 94.3755 422.612 96.6482C418.771 98.8982 414.203 100.023 408.908 100.023ZM408.976 88.7732C411.385 88.7732 413.396 88.0914 415.01 86.7278C416.624 85.3414 417.839 83.455 418.658 81.0687C419.499 78.6823 419.919 75.9664 419.919 72.9209C419.919 69.8755 419.499 67.1596 418.658 64.7732C417.839 62.3869 416.624 60.5005 415.01 59.1141C413.396 57.7278 411.385 57.0346 408.976 57.0346C406.544 57.0346 404.499 57.7278 402.839 59.1141C401.203 60.5005 399.964 62.3869 399.124 64.7732C398.305 67.1596 397.896 69.8755 397.896 72.9209C397.896 75.9664 398.305 78.6823 399.124 81.0687C399.964 83.455 401.203 85.3414 402.839 86.7278C404.499 88.0914 406.544 88.7732 408.976 88.7732ZM463.419 99.8528C459.442 99.8528 455.839 98.83 452.612 96.7846C449.408 94.7164 446.862 91.6823 444.976 87.6823C443.112 83.6596 442.18 78.7278 442.18 72.8869C442.18 66.8869 443.146 61.8982 445.078 57.9209C447.01 53.9209 449.578 50.9323 452.783 48.955C456.01 46.955 459.544 45.955 463.385 45.955C466.317 45.955 468.76 46.455 470.714 47.455C472.692 48.4323 474.283 49.6596 475.487 51.1369C476.714 52.5914 477.646 54.0232 478.283 55.4323H478.726V29.1823H493.214V99.0005H478.896V90.6141H478.283C477.601 92.0687 476.635 93.5119 475.385 94.9437C474.158 96.3528 472.555 97.5232 470.578 98.455C468.624 99.3869 466.237 99.8528 463.419 99.8528ZM468.021 88.2959C470.362 88.2959 472.339 87.6596 473.953 86.3869C475.589 85.0914 476.839 83.2846 477.703 80.9664C478.589 78.6482 479.033 75.9323 479.033 72.8187C479.033 69.705 478.601 67.0005 477.737 64.705C476.874 62.4096 475.624 60.6369 473.987 59.3869C472.351 58.1369 470.362 57.5119 468.021 57.5119C465.635 57.5119 463.624 58.1596 461.987 59.455C460.351 60.7505 459.112 62.5459 458.271 64.8414C457.43 67.1369 457.01 69.7959 457.01 72.8187C457.01 75.8641 457.43 78.5573 458.271 80.8982C459.135 83.2164 460.374 85.0346 461.987 86.3528C463.624 87.6482 465.635 88.2959 468.021 88.2959ZM529.018 100.023C523.632 100.023 518.996 98.9323 515.109 96.7505C511.246 94.5459 508.268 91.4323 506.178 87.4096C504.087 83.3641 503.041 78.58 503.041 73.0573C503.041 67.6709 504.087 62.9437 506.178 58.8755C508.268 54.8073 511.212 51.6369 515.007 49.3641C518.825 47.0914 523.303 45.955 528.439 45.955C531.893 45.955 535.109 46.5119 538.087 47.6255C541.087 48.7164 543.7 50.3641 545.928 52.5687C548.178 54.7732 549.928 57.5459 551.178 60.8869C552.428 64.205 553.053 68.0914 553.053 72.5459V76.5346H508.837V67.5346H539.382C539.382 65.4437 538.928 63.5914 538.018 61.9778C537.109 60.3641 535.848 59.1028 534.234 58.1937C532.643 57.2619 530.791 56.7959 528.678 56.7959C526.473 56.7959 524.518 57.3073 522.814 58.33C521.132 59.33 519.814 60.6823 518.859 62.3869C517.905 64.0687 517.416 65.9437 517.393 68.0119V76.5687C517.393 79.1596 517.871 81.3982 518.825 83.2846C519.803 85.1709 521.178 86.6255 522.95 87.6482C524.723 88.6709 526.825 89.1823 529.257 89.1823C530.871 89.1823 532.348 88.955 533.689 88.5005C535.03 88.0459 536.178 87.3641 537.132 86.455C538.087 85.5459 538.814 84.4323 539.314 83.1141L552.746 84.0005C552.064 87.2278 550.666 90.0459 548.553 92.455C546.462 94.8414 543.757 96.705 540.439 98.0459C537.143 99.3641 533.337 100.023 529.018 100.023Z"/>
</mask>
<path d="M374.936 53.6255H360.004C359.732 51.6937 359.175 49.9778 358.334 48.4778C357.493 46.955 356.413 45.6596 355.095 44.5914C353.777 43.5232 352.254 42.705 350.527 42.1369C348.822 41.5687 346.97 41.2846 344.97 41.2846C341.357 41.2846 338.209 42.1823 335.527 43.9778C332.845 45.7505 330.766 48.3414 329.288 51.7505C327.811 55.1369 327.072 59.2505 327.072 64.0914C327.072 69.0687 327.811 73.2505 329.288 76.6369C330.788 80.0232 332.879 82.58 335.561 84.3073C338.243 86.0346 341.345 86.8982 344.868 86.8982C346.845 86.8982 348.675 86.6369 350.357 86.1141C352.061 85.5914 353.572 84.83 354.891 83.83C356.209 82.8073 357.3 81.5687 358.163 80.1141C359.05 78.6596 359.663 77.0005 360.004 75.1369L374.936 75.205C374.55 78.4096 373.584 81.5005 372.038 84.4778C370.516 87.4323 368.459 90.08 365.868 92.4209C363.3 94.7391 360.232 96.58 356.663 97.9437C353.118 99.2846 349.107 99.955 344.629 99.955C338.402 99.955 332.834 98.5459 327.925 95.7278C323.038 92.9096 319.175 88.83 316.334 83.4891C313.516 78.1482 312.107 71.6823 312.107 64.0914C312.107 56.4778 313.538 50.0005 316.402 44.6596C319.266 39.3187 323.152 35.2505 328.061 32.455C332.97 29.6369 338.493 28.2278 344.629 28.2278C348.675 28.2278 352.425 28.7959 355.879 29.9323C359.357 31.0687 362.436 32.7278 365.118 34.9096C367.8 37.0687 369.982 39.7164 371.663 42.8528C373.368 45.9891 374.459 49.58 374.936 53.6255ZM408.908 100.023C403.612 100.023 399.033 98.8982 395.169 96.6482C391.328 94.3755 388.362 91.2164 386.271 87.1709C384.18 83.1028 383.135 78.3869 383.135 73.0232C383.135 67.6141 384.18 62.8869 386.271 58.8414C388.362 54.7732 391.328 51.6141 395.169 49.3641C399.033 47.0914 403.612 45.955 408.908 45.955C414.203 45.955 418.771 47.0914 422.612 49.3641C426.476 51.6141 429.453 54.7732 431.544 58.8414C433.635 62.8869 434.68 67.6141 434.68 73.0232C434.68 78.3869 433.635 83.1028 431.544 87.1709C429.453 91.2164 426.476 94.3755 422.612 96.6482C418.771 98.8982 414.203 100.023 408.908 100.023ZM408.976 88.7732C411.385 88.7732 413.396 88.0914 415.01 86.7278C416.624 85.3414 417.839 83.455 418.658 81.0687C419.499 78.6823 419.919 75.9664 419.919 72.9209C419.919 69.8755 419.499 67.1596 418.658 64.7732C417.839 62.3869 416.624 60.5005 415.01 59.1141C413.396 57.7278 411.385 57.0346 408.976 57.0346C406.544 57.0346 404.499 57.7278 402.839 59.1141C401.203 60.5005 399.964 62.3869 399.124 64.7732C398.305 67.1596 397.896 69.8755 397.896 72.9209C397.896 75.9664 398.305 78.6823 399.124 81.0687C399.964 83.455 401.203 85.3414 402.839 86.7278C404.499 88.0914 406.544 88.7732 408.976 88.7732ZM463.419 99.8528C459.442 99.8528 455.839 98.83 452.612 96.7846C449.408 94.7164 446.862 91.6823 444.976 87.6823C443.112 83.6596 442.18 78.7278 442.18 72.8869C442.18 66.8869 443.146 61.8982 445.078 57.9209C447.01 53.9209 449.578 50.9323 452.783 48.955C456.01 46.955 459.544 45.955 463.385 45.955C466.317 45.955 468.76 46.455 470.714 47.455C472.692 48.4323 474.283 49.6596 475.487 51.1369C476.714 52.5914 477.646 54.0232 478.283 55.4323H478.726V29.1823H493.214V99.0005H478.896V90.6141H478.283C477.601 92.0687 476.635 93.5119 475.385 94.9437C474.158 96.3528 472.555 97.5232 470.578 98.455C468.624 99.3869 466.237 99.8528 463.419 99.8528ZM468.021 88.2959C470.362 88.2959 472.339 87.6596 473.953 86.3869C475.589 85.0914 476.839 83.2846 477.703 80.9664C478.589 78.6482 479.033 75.9323 479.033 72.8187C479.033 69.705 478.601 67.0005 477.737 64.705C476.874 62.4096 475.624 60.6369 473.987 59.3869C472.351 58.1369 470.362 57.5119 468.021 57.5119C465.635 57.5119 463.624 58.1596 461.987 59.455C460.351 60.7505 459.112 62.5459 458.271 64.8414C457.43 67.1369 457.01 69.7959 457.01 72.8187C457.01 75.8641 457.43 78.5573 458.271 80.8982C459.135 83.2164 460.374 85.0346 461.987 86.3528C463.624 87.6482 465.635 88.2959 468.021 88.2959ZM529.018 100.023C523.632 100.023 518.996 98.9323 515.109 96.7505C511.246 94.5459 508.268 91.4323 506.178 87.4096C504.087 83.3641 503.041 78.58 503.041 73.0573C503.041 67.6709 504.087 62.9437 506.178 58.8755C508.268 54.8073 511.212 51.6369 515.007 49.3641C518.825 47.0914 523.303 45.955 528.439 45.955C531.893 45.955 535.109 46.5119 538.087 47.6255C541.087 48.7164 543.7 50.3641 545.928 52.5687C548.178 54.7732 549.928 57.5459 551.178 60.8869C552.428 64.205 553.053 68.0914 553.053 72.5459V76.5346H508.837V67.5346H539.382C539.382 65.4437 538.928 63.5914 538.018 61.9778C537.109 60.3641 535.848 59.1028 534.234 58.1937C532.643 57.2619 530.791 56.7959 528.678 56.7959C526.473 56.7959 524.518 57.3073 522.814 58.33C521.132 59.33 519.814 60.6823 518.859 62.3869C517.905 64.0687 517.416 65.9437 517.393 68.0119V76.5687C517.393 79.1596 517.871 81.3982 518.825 83.2846C519.803 85.1709 521.178 86.6255 522.95 87.6482C524.723 88.6709 526.825 89.1823 529.257 89.1823C530.871 89.1823 532.348 88.955 533.689 88.5005C535.03 88.0459 536.178 87.3641 537.132 86.455C538.087 85.5459 538.814 84.4323 539.314 83.1141L552.746 84.0005C552.064 87.2278 550.666 90.0459 548.553 92.455C546.462 94.8414 543.757 96.705 540.439 98.0459C537.143 99.3641 533.337 100.023 529.018 100.023Z" fill="#4B4F50"/>
<path d="M374.936 53.6255V54.6255H376.061L375.929 53.5083L374.936 53.6255ZM360.004 53.6255L359.014 53.7653L359.136 54.6255H360.004V53.6255ZM358.334 48.4778L357.458 48.9612L357.462 48.9668L358.334 48.4778ZM355.095 44.5914L354.466 45.3683L354.466 45.3683L355.095 44.5914ZM350.527 42.1369L350.211 43.0855L350.215 43.0868L350.527 42.1369ZM335.527 43.9778L336.078 44.812L336.083 44.8087L335.527 43.9778ZM329.288 51.7505L330.205 52.1503L330.206 52.1481L329.288 51.7505ZM329.288 76.6369L328.372 77.0367L328.374 77.0419L329.288 76.6369ZM335.561 84.3073L335.02 85.148L335.02 85.148L335.561 84.3073ZM350.357 86.1141L350.063 85.1581L350.06 85.1592L350.357 86.1141ZM354.891 83.83L355.495 84.6268L355.504 84.6201L354.891 83.83ZM358.163 80.1141L357.309 79.5937L357.304 79.6036L358.163 80.1141ZM360.004 75.1369L360.009 74.1369L359.171 74.133L359.021 74.9569L360.004 75.1369ZM374.936 75.205L375.929 75.3247L376.063 74.2102L374.941 74.205L374.936 75.205ZM372.038 84.4778L371.151 84.017L371.149 84.0196L372.038 84.4778ZM365.868 92.4209L366.538 93.1633L366.538 93.1629L365.868 92.4209ZM356.663 97.9437L357.017 98.879L357.02 98.8778L356.663 97.9437ZM327.925 95.7278L327.425 96.594L327.427 96.595L327.925 95.7278ZM316.334 83.4891L315.449 83.9558L315.451 83.9587L316.334 83.4891ZM316.402 44.6596L317.283 45.1321L317.283 45.1321L316.402 44.6596ZM328.061 32.455L328.556 33.324L328.559 33.3223L328.061 32.455ZM355.879 29.9323L355.567 30.8822L355.569 30.8828L355.879 29.9323ZM365.118 34.9096L364.487 35.6853L364.491 35.6885L365.118 34.9096ZM371.663 42.8528L370.782 43.3253L370.785 43.3303L371.663 42.8528ZM374.936 53.6255V52.6255H360.004V53.6255V54.6255H374.936V53.6255ZM360.004 53.6255L360.994 53.4857C360.707 51.4475 360.115 49.6104 359.206 47.9888L358.334 48.4778L357.462 48.9668C358.234 50.3451 358.756 51.9398 359.014 53.7653L360.004 53.6255ZM358.334 48.4778L359.209 47.9943C358.308 46.3618 357.146 44.9658 355.725 43.8145L355.095 44.5914L354.466 45.3683C355.681 46.3533 356.678 47.5483 357.458 48.9612L358.334 48.4778ZM355.095 44.5914L355.725 43.8145C354.306 42.6645 352.674 41.7903 350.839 41.1869L350.527 42.1369L350.215 43.0868C351.835 43.6198 353.248 44.3819 354.466 45.3683L355.095 44.5914ZM350.527 42.1369L350.843 41.1882C349.026 40.5824 347.066 40.2846 344.97 40.2846V41.2846V42.2846C346.875 42.2846 348.619 42.555 350.211 43.0855L350.527 42.1369ZM344.97 41.2846V40.2846C341.183 40.2846 337.836 41.2282 334.971 43.1468L335.527 43.9778L336.083 44.8087C338.581 43.1364 341.53 42.2846 344.97 42.2846V41.2846ZM335.527 43.9778L334.976 43.1435C332.108 45.0391 329.913 47.7942 328.371 51.3529L329.288 51.7505L330.206 52.1481C331.618 48.8886 333.582 46.4619 336.078 44.812L335.527 43.9778ZM329.288 51.7505L328.372 51.3506C326.825 54.8957 326.072 59.1536 326.072 64.0914H327.072H328.072C328.072 59.3474 328.797 55.378 330.205 52.1503L329.288 51.7505ZM327.072 64.0914H326.072C326.072 69.1612 326.824 73.4886 328.372 77.0367L329.288 76.6369L330.205 76.237C328.798 73.0124 328.072 68.9762 328.072 64.0914H327.072ZM329.288 76.6369L328.374 77.0419C329.94 80.5773 332.149 83.2988 335.02 85.148L335.561 84.3073L336.103 83.4666C333.61 81.8612 331.637 79.4691 330.203 76.2319L329.288 76.6369ZM335.561 84.3073L335.02 85.148C337.879 86.99 341.174 87.8982 344.868 87.8982V86.8982V85.8982C341.516 85.8982 338.606 85.0792 336.103 83.4666L335.561 84.3073ZM344.868 86.8982V87.8982C346.934 87.8982 348.864 87.6251 350.653 87.0691L350.357 86.1141L350.06 85.1592C348.485 85.6486 346.757 85.8982 344.868 85.8982V86.8982ZM350.357 86.1141L350.65 87.0702C352.458 86.5157 354.076 85.703 355.495 84.6267L354.891 83.83L354.286 83.0333C353.069 83.957 351.664 84.6671 350.063 85.1581L350.357 86.1141ZM354.891 83.83L355.504 84.6201C356.922 83.5194 358.096 82.1855 359.023 80.6247L358.163 80.1141L357.304 79.6036C356.503 80.9518 355.495 82.0952 354.278 83.0399L354.891 83.83ZM358.163 80.1141L359.017 80.6345C359.974 79.0643 360.627 77.2874 360.988 75.3168L360.004 75.1369L359.021 74.9569C358.699 76.7136 358.125 78.2549 357.309 79.5938L358.163 80.1141ZM360.004 75.1369L360 76.1368L374.932 76.205L374.936 75.205L374.941 74.205L360.009 74.1369L360.004 75.1369ZM374.936 75.205L373.943 75.0853C373.572 78.1662 372.643 81.142 371.151 84.017L372.038 84.4778L372.926 84.9385C374.524 81.859 375.528 78.653 375.929 75.3247L374.936 75.205ZM372.038 84.4778L371.149 84.0196C369.685 86.8618 367.704 89.4146 365.197 91.6789L365.868 92.4209L366.538 93.1629C369.214 90.7455 371.347 88.0028 372.927 84.9359L372.038 84.4778ZM365.868 92.4209L365.198 91.6786C362.73 93.9059 359.771 95.6854 356.306 97.0096L356.663 97.9437L357.02 98.8778C360.692 97.4747 363.869 95.5723 366.538 93.1633L365.868 92.4209ZM356.663 97.9437L356.31 97.0083C352.896 98.2995 349.007 98.955 344.629 98.955V99.955V100.955C349.206 100.955 353.34 100.27 357.017 98.879L356.663 97.9437ZM344.629 99.955V98.955C338.559 98.955 333.165 97.5832 328.423 94.8605L327.925 95.7278L327.427 96.595C332.502 99.5087 338.245 100.955 344.629 100.955V99.955ZM327.925 95.7278L328.424 94.8615C323.712 92.1438 319.976 88.2074 317.217 83.0195L316.334 83.4891L315.451 83.9587C318.373 89.4527 322.364 93.6753 327.425 96.594L327.925 95.7278ZM316.334 83.4891L317.218 83.0224C314.493 77.8577 313.107 71.5606 313.107 64.0914H312.107H311.107C311.107 71.804 312.538 78.4387 315.449 83.9558L316.334 83.4891ZM312.107 64.0914H313.107C313.107 56.6012 314.515 50.2951 317.283 45.1321L316.402 44.6596L315.521 44.187C312.562 49.7059 311.107 56.3543 311.107 64.0914H312.107ZM316.402 44.6596L317.283 45.1321C320.065 39.9445 323.822 36.0195 328.556 33.324L328.061 32.455L327.566 31.586C322.482 34.4815 318.467 38.6928 315.521 44.187L316.402 44.6596ZM328.061 32.455L328.559 33.3223C333.304 30.5983 338.652 29.2278 344.629 29.2278V28.2278V27.2278C338.333 27.2278 332.636 28.6754 327.563 31.5878L328.061 32.455ZM344.629 28.2278V29.2278C348.58 29.2278 352.224 29.7825 355.567 30.8822L355.879 29.9323L356.192 28.9824C352.626 27.8093 348.769 27.2278 344.629 27.2278V28.2278ZM355.879 29.9323L355.569 30.8828C358.936 31.9833 361.906 33.5853 364.487 35.6853L365.118 34.9096L365.749 34.1339C362.967 31.8702 359.777 30.154 356.19 28.9818L355.879 29.9323ZM365.118 34.9096L364.491 35.6885C367.065 37.7607 369.161 40.303 370.782 43.3253L371.663 42.8528L372.545 42.3802C370.802 39.1298 368.535 36.3766 365.745 34.1306L365.118 34.9096ZM371.663 42.8528L370.785 43.3303C372.421 46.3403 373.479 49.8058 373.943 53.7427L374.936 53.6255L375.929 53.5083C375.439 49.3542 374.315 45.638 372.542 42.3752L371.663 42.8528ZM395.169 96.6482L394.66 97.5089L394.666 97.5124L395.169 96.6482ZM386.271 87.1709L385.382 87.6281L385.383 87.6301L386.271 87.1709ZM386.271 58.8414L387.16 59.3005L387.161 59.2985L386.271 58.8414ZM395.169 49.3641L395.674 50.227L395.676 50.2261L395.169 49.3641ZM422.612 49.3641L422.103 50.2248L422.109 50.2283L422.612 49.3641ZM431.544 58.8414L430.655 59.2985L430.656 59.3005L431.544 58.8414ZM431.544 87.1709L432.432 87.6301L432.433 87.6281L431.544 87.1709ZM422.612 96.6482L423.118 97.5111L423.119 97.5101L422.612 96.6482ZM415.01 86.7278L415.655 87.4916L415.662 87.4863L415.01 86.7278ZM418.658 81.0687L417.714 80.7363L417.712 80.7443L418.658 81.0687ZM418.658 64.7732L417.712 65.0976L417.715 65.1056L418.658 64.7732ZM402.839 59.1141L402.198 58.3467L402.193 58.3511L402.839 59.1141ZM399.124 64.7732L398.18 64.4409L398.178 64.4489L399.124 64.7732ZM399.124 81.0687L398.178 81.393L398.18 81.401L399.124 81.0687ZM402.839 86.7278L402.193 87.4907L402.199 87.4956L402.205 87.5003L402.839 86.7278ZM408.908 100.023V99.0232C403.756 99.0232 399.357 97.9299 395.672 95.7841L395.169 96.6482L394.666 97.5124C398.708 99.8665 403.468 101.023 408.908 101.023V100.023ZM395.169 96.6482L395.678 95.7876C392.002 93.6125 389.166 90.5941 387.16 86.7118L386.271 87.1709L385.383 87.6301C387.558 91.8387 390.654 95.1385 394.66 97.5088L395.169 96.6482ZM386.271 87.1709L387.161 86.7138C385.154 82.8096 384.135 78.2553 384.135 73.0232H383.135H382.135C382.135 78.5184 383.207 83.396 385.382 87.6281L386.271 87.1709ZM383.135 73.0232H384.135C384.135 67.744 385.155 63.1797 387.16 59.3005L386.271 58.8414L385.383 58.3822C383.206 62.594 382.135 67.4842 382.135 73.0232H383.135ZM386.271 58.8414L387.161 59.2985C389.167 55.3944 392.002 52.3782 395.674 50.227L395.169 49.3641L394.664 48.5013C390.654 50.8501 387.557 54.152 385.382 58.3843L386.271 58.8414ZM395.169 49.3641L395.676 50.2261C399.36 48.0589 403.758 46.955 408.908 46.955V45.955V44.955C403.467 44.955 398.705 46.1239 394.662 48.5022L395.169 49.3641ZM408.908 45.955V46.955C414.058 46.955 418.443 48.059 422.103 50.2247L422.612 49.3641L423.121 48.5035C419.1 46.1238 414.349 44.955 408.908 44.955V45.955ZM422.612 49.3641L422.109 50.2283C425.804 52.3799 428.649 55.3959 430.655 59.2985L431.544 58.8414L432.433 58.3843C430.257 54.1505 427.148 50.8483 423.115 48.5L422.612 49.3641ZM431.544 58.8414L430.656 59.3005C432.661 63.1797 433.68 67.744 433.68 73.0232H434.68H435.68C435.68 67.4842 434.609 62.594 432.432 58.3822L431.544 58.8414ZM434.68 73.0232H433.68C433.68 78.2553 432.661 82.8096 430.655 86.7138L431.544 87.1709L432.433 87.6281C434.609 83.396 435.68 78.5184 435.68 73.0232H434.68ZM431.544 87.1709L430.656 86.7118C428.65 90.5925 425.804 93.6108 422.105 95.7863L422.612 96.6482L423.119 97.5101C427.148 95.1402 430.256 91.8403 432.432 87.6301L431.544 87.1709ZM422.612 96.6482L422.107 95.7854C418.446 97.9299 414.059 99.0232 408.908 99.0232V100.023V101.023C414.347 101.023 419.097 99.8666 423.118 97.5111L422.612 96.6482ZM408.976 88.7732V89.7732C411.586 89.7732 413.836 89.029 415.655 87.4916L415.01 86.7278L414.364 85.964C412.956 87.1538 411.184 87.7732 408.976 87.7732V88.7732ZM415.01 86.7278L415.662 87.4863C417.433 85.964 418.739 83.9162 419.604 81.393L418.658 81.0687L417.712 80.7443C416.94 82.9939 415.814 84.7188 414.358 85.9693L415.01 86.7278ZM418.658 81.0687L419.601 81.401C420.486 78.8887 420.919 76.0572 420.919 72.9209H419.919H418.919C418.919 75.8756 418.511 78.476 417.715 80.7363L418.658 81.0687ZM419.919 72.9209H420.919C420.919 69.7847 420.486 66.9532 419.601 64.4409L418.658 64.7732L417.715 65.1056C418.511 67.3659 418.919 69.9663 418.919 72.9209H419.919ZM418.658 64.7732L419.604 64.4489C418.739 61.9257 417.433 59.8779 415.662 58.3556L415.01 59.1141L414.358 59.8726C415.814 61.1231 416.94 62.848 417.712 65.0975L418.658 64.7732ZM415.01 59.1141L415.662 58.3556C413.843 56.7928 411.59 56.0346 408.976 56.0346V57.0346V58.0346C411.18 58.0346 412.95 58.6627 414.358 59.8726L415.01 59.1141ZM408.976 57.0346V56.0346C406.341 56.0346 404.06 56.7913 402.198 58.3468L402.839 59.1141L403.481 59.8815C404.937 58.6642 406.747 58.0346 408.976 58.0346V57.0346ZM402.839 59.1141L402.193 58.3511C400.399 59.8713 399.07 61.9175 398.18 64.4409L399.124 64.7732L400.067 65.1056C400.859 62.8562 402.007 61.1297 403.486 59.8771L402.839 59.1141ZM399.124 64.7732L398.178 64.4489C397.317 66.9587 396.896 69.7873 396.896 72.9209H397.896H398.896C398.896 69.9637 399.294 67.3605 400.07 65.0975L399.124 64.7732ZM397.896 72.9209H396.896C396.896 76.0546 397.317 78.8832 398.178 81.393L399.124 81.0687L400.07 80.7443C399.294 78.4814 398.896 75.8782 398.896 72.9209H397.896ZM399.124 81.0687L398.18 81.401C399.07 83.9244 400.399 85.9706 402.193 87.4907L402.839 86.7278L403.486 85.9648C402.007 84.7122 400.859 82.9857 400.067 80.7363L399.124 81.0687ZM402.839 86.7278L402.205 87.5003C404.066 89.0304 406.345 89.7732 408.976 89.7732V88.7732V87.7732C406.743 87.7732 404.931 87.1524 403.474 85.9552L402.839 86.7278ZM452.612 96.7846L452.07 97.6248L452.077 97.6292L452.612 96.7846ZM444.976 87.6823L444.068 88.1027L444.071 88.1088L444.976 87.6823ZM445.078 57.9209L445.978 58.3578L445.979 58.3558L445.078 57.9209ZM452.783 48.955L453.308 49.8061L453.309 49.805L452.783 48.955ZM470.714 47.455L470.259 48.3454L470.271 48.3515L470.714 47.455ZM475.487 51.1369L474.712 51.7688L474.718 51.7753L474.723 51.7817L475.487 51.1369ZM478.283 55.4323L477.371 55.8439L477.637 56.4323H478.283V55.4323ZM478.726 55.4323V56.4323H479.726V55.4323H478.726ZM478.726 29.1823V28.1823H477.726V29.1823H478.726ZM493.214 29.1823H494.214V28.1823H493.214V29.1823ZM493.214 99.0005V100H494.214V99.0005H493.214ZM478.896 99.0005H477.896V100H478.896V99.0005ZM478.896 90.6141H479.896V89.6141H478.896V90.6141ZM478.283 90.6141V89.6141H477.647L477.377 90.1897L478.283 90.6141ZM475.385 94.9437L474.632 94.286L474.631 94.2869L475.385 94.9437ZM470.578 98.455L470.152 97.5504L470.148 97.5524L470.578 98.455ZM473.953 86.3869L474.572 87.172L474.574 87.1709L473.953 86.3869ZM477.703 80.9664L476.769 80.6092L476.766 80.6173L477.703 80.9664ZM477.737 64.705L478.673 64.3529L478.673 64.3529L477.737 64.705ZM461.987 59.455L461.367 58.671L461.367 58.671L461.987 59.455ZM458.271 80.8982L457.33 81.2363L457.334 81.2473L458.271 80.8982ZM461.987 86.3528L461.355 87.1272L461.361 87.1321L461.367 87.1368L461.987 86.3528ZM463.419 99.8528V98.8528C459.623 98.8528 456.208 97.8796 453.148 95.9399L452.612 96.7846L452.077 97.6292C455.471 99.7804 459.26 100.853 463.419 100.853V99.8528ZM452.612 96.7846L453.154 95.9444C450.131 93.9928 447.7 91.1142 445.88 87.2558L444.976 87.6823L444.071 88.1088C446.025 92.2504 448.685 95.44 452.07 97.6248L452.612 96.7846ZM444.976 87.6823L445.883 87.2619C444.097 83.4058 443.18 78.6266 443.18 72.8869H442.18H441.18C441.18 78.8289 442.128 83.9134 444.068 88.1027L444.976 87.6823ZM442.18 72.8869H443.18C443.18 66.987 444.131 62.1594 445.978 58.3578L445.078 57.9209L444.179 57.484C442.161 61.6371 441.18 66.7867 441.18 72.8869H442.18ZM445.078 57.9209L445.979 58.3558C447.843 54.4962 450.293 51.6664 453.308 49.8061L452.783 48.955L452.258 48.104C448.864 50.1982 446.177 53.3457 444.178 57.4861L445.078 57.9209ZM452.783 48.955L453.309 49.805C456.377 47.9043 459.728 46.955 463.385 46.955V45.955V44.955C459.36 44.955 455.643 46.0058 452.256 48.105L452.783 48.955ZM463.385 45.955V46.955C466.209 46.955 468.485 47.4375 470.259 48.3453L470.714 47.455L471.17 46.5648C469.035 45.4726 466.424 44.955 463.385 44.955V45.955ZM470.714 47.455L470.271 48.3515C472.14 49.2753 473.611 50.4185 474.712 51.7688L475.487 51.1369L476.262 50.5049C474.954 48.9006 473.243 47.5893 471.158 46.5586L470.714 47.455ZM475.487 51.1369L474.723 51.7817C475.904 53.1813 476.781 54.5357 477.371 55.8439L478.283 55.4323L479.194 55.0207C478.512 53.5107 477.525 52.0015 476.252 50.492L475.487 51.1369ZM478.283 55.4323V56.4323H478.726V55.4323V54.4323H478.283V55.4323ZM478.726 55.4323H479.726V29.1823H478.726H477.726V55.4323H478.726ZM478.726 29.1823V30.1823H493.214V29.1823V28.1823H478.726V29.1823ZM493.214 29.1823H492.214V99.0005H493.214H494.214V29.1823H493.214ZM493.214 99.0005V98.0005H478.896V99.0005V100H493.214V99.0005ZM478.896 99.0005H479.896V90.6141H478.896H477.896V99.0005H478.896ZM478.896 90.6141V89.6141H478.283V90.6141V91.6141H478.896V90.6141ZM478.283 90.6141L477.377 90.1897C476.741 91.546 475.831 92.912 474.632 94.286L475.385 94.9437L476.138 95.6013C477.439 94.1117 478.46 92.5913 479.188 91.0386L478.283 90.6141ZM475.385 94.9437L474.631 94.2869C473.509 95.5754 472.025 96.6677 470.152 97.5505L470.578 98.455L471.004 99.3596C473.086 98.3787 474.807 97.1302 476.139 95.6005L475.385 94.9437ZM470.578 98.455L470.148 97.5524C468.362 98.4038 466.131 98.8528 463.419 98.8528V99.8528V100.853C466.343 100.853 468.885 100.37 471.008 99.3577L470.578 98.455ZM468.021 88.2959V89.2959C470.554 89.2959 472.758 88.603 474.572 87.172L473.953 86.3869L473.334 85.6017C471.921 86.7162 470.17 87.2959 468.021 87.2959V88.2959ZM473.953 86.3869L474.574 87.1709C476.378 85.7426 477.725 83.7728 478.64 81.3155L477.703 80.9664L476.766 80.6173C475.954 82.7963 474.801 84.4402 473.332 85.6028L473.953 86.3869ZM477.703 80.9664L478.637 81.3235C479.577 78.8664 480.033 76.0245 480.033 72.8187H479.033H478.033C478.033 75.8401 477.602 78.43 476.769 80.6093L477.703 80.9664ZM479.033 72.8187H480.033C480.033 69.6158 479.589 66.7867 478.673 64.3529L477.737 64.705L476.801 65.0572C477.613 67.2143 478.033 69.7943 478.033 72.8187H479.033ZM477.737 64.705L478.673 64.3529C477.756 61.9159 476.406 59.9761 474.594 58.5922L473.987 59.3869L473.38 60.1815C474.841 61.2976 475.991 62.9033 476.801 65.0572L477.737 64.705ZM473.987 59.3869L474.594 58.5922C472.76 57.1911 470.55 56.5119 468.021 56.5119V57.5119V58.5119C470.174 58.5119 471.942 59.0826 473.38 60.1815L473.987 59.3869ZM468.021 57.5119V56.5119C465.444 56.5119 463.204 57.216 461.367 58.671L461.987 59.455L462.608 60.2391C464.043 59.1032 465.826 58.5119 468.021 58.5119V57.5119ZM461.987 59.455L461.367 58.671C459.562 60.0993 458.226 62.0588 457.332 64.4974L458.271 64.8414L459.21 65.1854C459.999 63.0331 461.139 61.4016 462.608 60.2391L461.987 59.455ZM458.271 64.8414L457.332 64.4974C456.443 66.9256 456.01 69.7053 456.01 72.8187H457.01H458.01C458.01 69.8866 458.418 67.3481 459.21 65.1854L458.271 64.8414ZM457.01 72.8187H456.01C456.01 75.9544 456.443 78.7657 457.33 81.2363L458.271 80.8982L459.212 80.5601C458.418 78.3489 458.01 75.7739 458.01 72.8187H457.01ZM458.271 80.8982L457.334 81.2473C458.248 83.7005 459.58 85.6774 461.355 87.1272L461.987 86.3528L462.62 85.5783C461.167 84.3918 460.022 82.7323 459.208 80.5491L458.271 80.8982ZM461.987 86.3528L461.367 87.1368C463.204 88.5918 465.444 89.2959 468.021 89.2959V88.2959V87.2959C465.826 87.2959 464.043 86.7046 462.608 85.5687L461.987 86.3528ZM515.109 96.7505L514.614 97.6191L514.62 97.6225L515.109 96.7505ZM506.178 87.4096L505.289 87.8687L505.29 87.8708L506.178 87.4096ZM506.178 58.8755L505.288 58.4184L505.288 58.4184L506.178 58.8755ZM515.007 49.3641L514.496 48.5048L514.493 48.5062L515.007 49.3641ZM538.087 47.6255L537.736 48.5622L537.745 48.5653L538.087 47.6255ZM545.928 52.5687L545.224 53.2794L545.228 53.283L545.928 52.5687ZM551.178 60.8869L550.241 61.2373L550.242 61.2394L551.178 60.8869ZM553.053 76.5346V77.5346H554.053V76.5346H553.053ZM508.837 76.5346H507.837V77.5346H508.837V76.5346ZM508.837 67.5346V66.5346H507.837V67.5346H508.837ZM539.382 67.5346V68.5346H540.382V67.5346H539.382ZM538.018 61.9778L537.147 62.4686L537.147 62.4686L538.018 61.9778ZM534.234 58.1937L533.729 59.0566L533.736 59.0608L533.744 59.0649L534.234 58.1937ZM522.814 58.33L523.325 59.1896L523.328 59.1875L522.814 58.33ZM518.859 62.3869L519.729 62.8805L519.732 62.8755L518.859 62.3869ZM517.393 68.0119L516.393 68.0009V68.0119H517.393ZM518.825 83.2846L517.933 83.7361L517.937 83.7446L518.825 83.2846ZM533.689 88.5005L533.368 87.5534L533.368 87.5534L533.689 88.5005ZM537.132 86.455L536.442 85.7309L536.442 85.7309L537.132 86.455ZM539.314 83.1141L539.38 82.1163L538.641 82.0676L538.379 82.7595L539.314 83.1141ZM552.746 84.0005L553.724 84.2072L553.963 83.0786L552.812 83.0027L552.746 84.0005ZM548.553 92.455L547.801 91.7955L547.8 91.796L548.553 92.455ZM540.439 98.0459L540.81 98.9744L540.814 98.9731L540.439 98.0459ZM529.018 100.023V99.0232C523.768 99.0232 519.308 97.9605 515.599 95.8785L515.109 96.7505L514.62 97.6225C518.684 99.9041 523.496 101.023 529.018 101.023V100.023ZM515.109 96.7505L515.605 95.8819C511.912 93.7746 509.069 90.804 507.065 86.9484L506.178 87.4096L505.29 87.8708C507.468 92.0607 510.58 95.3173 514.614 97.619L515.109 96.7505ZM506.178 87.4096L507.066 86.9504C505.062 83.074 504.041 78.4539 504.041 73.0573H503.041H502.041C502.041 78.7062 503.111 83.6542 505.289 87.8687L506.178 87.4096ZM503.041 73.0573H504.041C504.041 67.8018 505.061 63.2363 507.067 59.3326L506.178 58.8755L505.288 58.4184C503.113 62.651 502.041 67.5401 502.041 73.0573H503.041ZM506.178 58.8755L507.067 59.3326C509.076 55.4246 511.891 52.3955 515.521 50.2221L515.007 49.3641L514.493 48.5062C510.532 50.8782 507.461 54.1901 505.288 58.4184L506.178 58.8755ZM515.007 49.3641L515.519 50.2234C519.159 48.0563 523.454 46.955 528.439 46.955V45.955V44.955C523.151 44.955 518.491 46.1264 514.496 48.5048L515.007 49.3641ZM528.439 45.955V46.955C531.784 46.955 534.88 47.4939 537.736 48.5621L538.087 47.6255L538.437 46.6889C535.338 45.5298 532.003 44.955 528.439 44.955V45.955ZM538.087 47.6255L537.745 48.5653C540.612 49.6078 543.101 51.1784 545.224 53.2794L545.928 52.5687L546.631 51.8579C544.299 49.5499 541.561 47.825 538.428 46.6857L538.087 47.6255ZM545.928 52.5687L545.228 53.283C547.36 55.3722 549.035 58.0153 550.241 61.2373L551.178 60.8869L552.114 60.5364C550.82 57.0766 548.995 54.1742 546.627 51.8544L545.928 52.5687ZM551.178 60.8869L550.242 61.2394C551.44 64.4201 552.053 68.1822 552.053 72.5459H553.053H554.053C554.053 68.0006 553.415 63.9899 552.113 60.5343L551.178 60.8869ZM553.053 72.5459H552.053V76.5346H553.053H554.053V72.5459H553.053ZM553.053 76.5346V75.5346H508.837V76.5346V77.5346H553.053V76.5346ZM508.837 76.5346H509.837V67.5346H508.837H507.837V76.5346H508.837ZM508.837 67.5346V68.5346H539.382V67.5346V66.5346H508.837V67.5346ZM539.382 67.5346H540.382C540.382 65.2943 539.894 63.2689 538.89 61.4869L538.018 61.9778L537.147 62.4686C537.961 63.9139 538.382 65.5931 538.382 67.5346H539.382ZM538.018 61.9778L538.89 61.4869C537.891 59.7141 536.498 58.3212 534.725 57.3224L534.234 58.1937L533.744 59.0649C535.198 59.8843 536.328 61.0141 537.147 62.4686L538.018 61.9778ZM534.234 58.1937L534.74 57.3308C532.974 56.2967 530.942 55.7959 528.678 55.7959V56.7959V57.7959C530.64 57.7959 532.313 58.227 533.729 59.0566L534.234 58.1937ZM528.678 56.7959V55.7959C526.312 55.7959 524.176 56.3466 522.299 57.4725L522.814 58.33L523.328 59.1875C524.861 58.268 526.634 57.7959 528.678 57.7959V56.7959ZM522.814 58.33L522.303 57.4705C520.47 58.5601 519.027 60.0402 517.987 61.8982L518.859 62.3869L519.732 62.8755C520.6 61.3244 521.794 60.1 523.325 59.1896L522.814 58.33ZM518.859 62.3869L517.99 61.8932C516.946 63.7325 516.418 65.7755 516.394 68.0009L517.393 68.0119L518.393 68.0228C518.414 66.1118 518.864 64.4048 519.729 62.8805L518.859 62.3869ZM517.393 68.0119H516.393V76.5687H517.393H518.393V68.0119H517.393ZM517.393 76.5687H516.393C516.393 79.2816 516.893 81.6817 517.933 83.7361L518.825 83.2846L519.718 82.8331C518.848 81.1147 518.393 79.0375 518.393 76.5687H517.393ZM518.825 83.2846L517.937 83.7446C518.999 85.7939 520.506 87.3924 522.451 88.5144L522.95 87.6482L523.45 86.782C521.849 85.8586 520.606 84.548 519.713 82.8246L518.825 83.2846ZM522.95 87.6482L522.451 88.5144C524.402 89.64 526.683 90.1823 529.257 90.1823V89.1823V88.1823C526.968 88.1823 525.044 87.7019 523.45 86.782L522.95 87.6482ZM529.257 89.1823V90.1823C530.965 90.1823 532.552 89.9417 534.01 89.4476L533.689 88.5005L533.368 87.5534C532.144 87.9684 530.777 88.1823 529.257 88.1823V89.1823ZM533.689 88.5005L534.01 89.4476C535.478 88.9499 536.754 88.1958 537.822 87.1792L537.132 86.455L536.442 85.7309C535.601 86.5325 534.582 87.142 533.368 87.5534L533.689 88.5005ZM537.132 86.455L537.822 87.1792C538.892 86.1598 539.7 84.917 540.249 83.4688L539.314 83.1141L538.379 82.7595C537.928 83.9476 537.281 84.9321 536.442 85.7309L537.132 86.455ZM539.314 83.1141L539.248 84.112L552.68 84.9983L552.746 84.0005L552.812 83.0027L539.38 82.1163L539.314 83.1141ZM552.746 84.0005L551.767 83.7938C551.12 86.8583 549.798 89.5193 547.801 91.7955L548.553 92.455L549.304 93.1145C551.534 90.5726 553.008 87.5972 553.724 84.2072L552.746 84.0005ZM548.553 92.455L547.8 91.796C545.825 94.0504 543.256 95.8289 540.064 97.1188L540.439 98.0459L540.814 98.9731C544.258 97.5811 547.098 95.6324 549.305 93.114L548.553 92.455ZM540.439 98.0459L540.068 97.1175C536.913 98.3794 533.236 99.0232 529.018 99.0232V100.023V101.023C533.437 101.023 537.374 100.349 540.81 98.9744L540.439 98.0459Z" fill="#181818" mask="url(#path-3-outside-2_118_238)"/>
</svg>
