<svg width="20" height="18" viewBox="0 0 20 18" fill="none" xmlns="http://www.w3.org/2000/svg">
<path d="M1 3.00012V13.8001C1 14.9202 1 15.4799 1.21799 15.9077C1.40973 16.284 1.71547 16.5906 2.0918 16.7823C2.5192 17.0001 3.07899 17.0001 4.19691 17.0001H15.8031C16.921 17.0001 17.48 17.0001 17.9074 16.7823C18.2837 16.5906 18.5905 16.2842 18.7822 15.9079C19.0002 15.4801 19.0002 14.92 19.0002 13.7999L19.0002 6.1999C19.0002 5.07979 19.0002 4.51974 18.7822 4.09192C18.5905 3.71559 18.2839 3.40986 17.9076 3.21811C17.4798 3.00012 16.9201 3.00012 15.8 3.00012H10M1 3.00012H10M1 3.00012C1 1.89555 1.89543 1.00012 3 1.00012H6.67452C7.1637 1.00012 7.40886 1.00012 7.63904 1.05538C7.84311 1.10438 8.03785 1.18539 8.2168 1.29504C8.41857 1.41869 8.59181 1.59194 8.9375 1.93762L10 3.00012" stroke="#929292" stroke-width="2" stroke-linecap="round" stroke-linejoin="round"/>
</svg>
