<svg width="16" height="17" viewBox="0 0 16 17" fill="none" xmlns="http://www.w3.org/2000/svg">
<path d="M1 13.6637V2.99703C1 2.11746 1 1.67719 1.18509 1.41695C1.34664 1.18982 1.59564 1.04069 1.87207 1.00504C2.18868 0.964201 2.57701 1.1713 3.35254 1.58492L13.3525 6.91825L13.3562 6.91987C14.2132 7.37696 14.642 7.60562 14.7826 7.91038C14.9053 8.17623 14.9053 8.48313 14.7826 8.74898C14.6418 9.05417 14.212 9.28376 13.3525 9.74215L3.35254 15.0755C2.57645 15.4894 2.1888 15.6957 1.87207 15.6549C1.59564 15.6192 1.34664 15.4701 1.18509 15.243C1 14.9827 1 14.5433 1 13.6637Z" stroke="#27FF27" stroke-width="2" stroke-linecap="round" stroke-linejoin="round"/>
</svg>
